<svg id="svg" version="1.1" width="400" height="400" xmlns="http://www.w3.org/2000/svg" xmlns:xlink="http://www.w3.org/1999/xlink" style="display: block;"><g id="svgg"><path id="path0" d="M62.400 49.955 C 62.400 50.151,61.725 50.436,60.900 50.589 C 58.827 50.973,56.699 52.264,54.481 54.481 C 52.887 56.076,52.400 56.658,52.400 56.970 C 52.400 57.137,52.055 57.713,51.633 58.249 C 51.211 58.785,50.746 59.938,50.598 60.812 C 50.450 61.685,50.166 62.400,49.965 62.400 C 49.490 62.400,49.480 87.079,49.955 87.372 C 50.150 87.493,50.435 88.263,50.589 89.083 C 50.900 90.738,52.665 94.000,53.251 94.000 C 53.457 94.000,53.740 94.300,53.881 94.667 C 54.218 95.546,56.461 97.573,57.113 97.588 C 57.394 97.595,57.725 97.861,57.847 98.179 C 57.970 98.498,59.044 98.976,60.235 99.243 C 61.426 99.509,62.400 99.879,62.400 100.064 C 62.400 100.249,124.320 100.400,200.000 100.400 C 275.680 100.400,337.600 100.249,337.600 100.064 C 337.600 99.879,338.574 99.509,339.765 99.243 C 340.956 98.976,342.030 98.498,342.153 98.179 C 342.275 97.861,342.606 97.595,342.887 97.588 C 343.461 97.575,346.000 95.384,346.000 94.902 C 346.000 94.732,346.360 94.368,346.800 94.093 C 347.240 93.818,347.600 93.398,347.600 93.160 C 347.600 92.921,347.945 92.287,348.367 91.751 C 348.789 91.215,349.254 90.062,349.402 89.188 C 349.550 88.315,349.834 87.600,350.035 87.600 C 350.247 87.600,350.400 82.324,350.400 75.000 C 350.400 67.919,350.244 62.400,350.045 62.400 C 349.849 62.400,349.563 61.730,349.410 60.912 C 348.620 56.703,343.290 51.366,339.100 50.589 C 338.275 50.436,337.600 50.151,337.600 49.955 C 337.600 49.749,279.979 49.600,200.000 49.600 C 120.021 49.600,62.400 49.749,62.400 49.955 M84.267 132.267 C 84.120 132.413,84.000 140.153,84.000 149.467 L 84.000 166.400 66.800 166.400 L 49.600 166.400 49.600 191.600 L 49.600 216.800 66.400 216.800 L 83.200 216.800 83.200 234.400 C 83.200 244.080,83.298 252.000,83.417 252.000 C 83.658 252.000,84.065 251.690,85.745 250.224 C 86.374 249.675,87.229 249.118,87.645 248.986 C 88.060 248.854,88.400 248.573,88.400 248.360 C 88.400 248.148,88.715 247.855,89.100 247.708 C 89.761 247.456,96.228 242.738,97.670 241.456 C 98.038 241.129,98.754 240.639,99.261 240.367 C 99.769 240.096,100.382 239.677,100.626 239.437 C 100.869 239.197,101.575 238.640,102.195 238.200 C 102.815 237.760,103.654 237.085,104.061 236.700 C 104.467 236.315,104.901 236.000,105.024 236.000 C 105.297 236.000,108.754 233.458,109.634 232.610 C 109.982 232.275,110.468 232.000,110.714 232.000 C 110.959 232.000,111.304 231.771,111.480 231.490 C 111.656 231.210,112.335 230.640,112.990 230.222 C 114.298 229.389,114.872 228.950,116.029 227.900 C 116.453 227.515,116.888 227.200,116.997 227.200 C 117.243 227.200,120.780 224.606,121.634 223.799 C 121.982 223.469,122.437 223.200,122.645 223.200 C 122.852 223.200,123.321 222.885,123.686 222.500 C 124.494 221.648,125.527 220.869,128.400 218.944 C 129.610 218.134,130.690 217.365,130.800 217.235 C 131.251 216.704,134.374 214.400,134.643 214.400 C 134.802 214.400,135.218 214.138,135.566 213.819 C 137.640 211.915,138.029 211.600,138.300 211.600 C 138.567 211.599,139.804 210.679,141.620 209.129 C 141.961 208.838,143.307 207.880,144.610 207.000 C 146.797 205.524,147.493 204.979,149.234 203.381 C 149.582 203.062,149.982 202.800,150.122 202.800 C 150.262 202.800,151.867 201.693,153.688 200.339 C 155.510 198.986,157.781 197.321,158.737 196.639 C 159.692 195.958,160.767 195.085,161.126 194.700 C 161.484 194.315,161.968 194.000,162.200 194.000 C 162.617 194.000,164.177 192.407,163.929 192.235 C 163.419 191.882,158.559 188.159,158.400 187.999 C 158.213 187.811,156.302 186.356,141.465 175.104 C 138.349 172.742,135.416 170.492,134.946 170.104 C 134.477 169.717,133.592 169.040,132.980 168.600 C 132.367 168.160,130.835 166.990,129.575 166.000 C 128.315 165.010,126.785 163.840,126.176 163.400 C 125.566 162.960,124.873 162.420,124.634 162.200 C 124.395 161.980,123.342 161.170,122.293 160.400 C 121.244 159.630,119.962 158.640,119.445 158.200 C 118.927 157.760,118.001 157.040,117.387 156.600 C 116.773 156.160,115.624 155.302,114.835 154.694 C 114.046 154.085,113.040 153.313,112.600 152.977 C 112.160 152.641,111.260 151.924,110.600 151.383 C 109.940 150.843,109.273 150.401,109.118 150.400 C 108.963 150.400,108.404 149.995,107.875 149.500 C 107.347 149.005,106.434 148.240,105.847 147.800 C 105.260 147.360,104.555 146.820,104.280 146.600 C 101.866 144.668,100.402 143.600,100.169 143.600 C 100.017 143.600,99.497 143.195,99.015 142.700 C 98.534 142.205,97.647 141.452,97.046 141.026 C 96.445 140.601,95.468 139.836,94.876 139.327 C 94.284 138.818,93.618 138.401,93.396 138.400 C 93.174 138.400,92.768 138.040,92.493 137.600 C 92.218 137.160,91.785 136.800,91.530 136.800 C 91.275 136.800,90.782 136.532,90.434 136.205 C 88.482 134.374,86.966 133.200,86.554 133.200 C 86.296 133.200,85.982 132.930,85.855 132.600 C 85.618 131.981,84.737 131.796,84.267 132.267 M211.700 166.680 C 211.205 166.777,210.800 167.001,210.800 167.178 C 210.800 167.355,210.250 167.610,209.577 167.745 C 208.447 167.971,204.000 171.074,204.000 171.636 C 204.000 171.772,203.545 172.404,202.989 173.042 C 201.338 174.932,201.283 175.027,200.764 176.850 C 200.489 177.812,200.115 178.771,199.933 178.980 C 199.475 179.503,199.507 203.895,199.965 204.178 C 200.166 204.303,200.450 205.112,200.596 205.976 C 200.742 206.841,201.208 207.948,201.631 208.436 C 202.054 208.923,202.400 209.459,202.400 209.625 C 202.400 210.187,206.590 214.207,207.800 214.805 C 208.460 215.132,209.090 215.505,209.200 215.635 C 210.118 216.717,214.803 216.800,275.000 216.800 C 335.197 216.800,339.882 216.717,340.800 215.635 C 340.910 215.505,341.540 215.131,342.200 214.803 C 343.480 214.167,347.600 210.251,347.600 209.670 C 347.600 209.479,347.946 208.923,348.369 208.436 C 348.792 207.948,349.258 206.841,349.404 205.976 C 349.550 205.112,349.834 204.303,350.035 204.178 C 350.499 203.892,350.522 179.496,350.059 178.980 C 349.871 178.771,349.488 177.745,349.207 176.700 C 348.926 175.655,348.584 174.795,348.448 174.789 C 348.312 174.783,347.756 174.060,347.214 173.181 C 346.048 171.291,342.214 168.166,340.564 167.762 C 339.924 167.605,339.272 167.280,339.115 167.038 C 338.836 166.610,213.860 166.258,211.700 166.680 M61.000 283.699 C 60.120 283.928,59.310 284.245,59.200 284.404 C 59.090 284.562,58.631 284.807,58.180 284.948 C 57.237 285.242,52.400 289.714,52.400 290.293 C 52.400 290.504,52.054 291.077,51.631 291.564 C 51.208 292.052,50.742 293.159,50.596 294.024 C 50.450 294.888,50.166 295.697,49.965 295.822 C 49.507 296.105,49.475 320.497,49.933 321.020 C 50.115 321.229,50.491 322.194,50.768 323.164 C 51.044 324.134,51.479 325.164,51.735 325.454 C 51.991 325.743,52.560 326.449,53.000 327.022 C 54.251 328.651,56.553 330.793,57.057 330.797 C 57.309 330.798,57.612 331.053,57.730 331.362 C 57.849 331.672,58.543 332.054,59.273 332.213 C 60.003 332.371,60.728 332.703,60.885 332.950 C 61.295 333.595,338.705 333.595,339.115 332.950 C 339.272 332.703,339.997 332.371,340.727 332.213 C 341.457 332.054,342.151 331.672,342.270 331.362 C 342.388 331.053,342.712 330.800,342.988 330.800 C 343.698 330.800,347.600 326.879,347.600 326.165 C 347.600 325.841,347.850 325.479,348.155 325.362 C 348.461 325.245,348.937 324.305,349.214 323.274 C 349.491 322.243,349.871 321.229,350.059 321.020 C 350.524 320.502,350.501 295.600,350.035 295.600 C 349.834 295.600,349.551 294.892,349.404 294.026 C 349.258 293.160,348.792 292.052,348.369 291.564 C 347.946 291.077,347.600 290.494,347.600 290.269 C 347.600 289.592,342.783 285.211,341.755 284.953 C 341.230 284.821,340.800 284.584,340.800 284.425 C 340.800 283.171,65.774 282.457,61.000 283.699 " stroke="none" fill="#ffffff" fill-rule="evenodd"></path><path id="path1" d="M62.400 49.955 C 62.400 50.151,61.725 50.436,60.900 50.589 C 58.827 50.973,56.699 52.264,54.481 54.481 C 52.887 56.076,52.400 56.658,52.400 56.970 C 52.400 57.137,52.055 57.713,51.633 58.249 C 51.211 58.785,50.746 59.938,50.598 60.812 C 50.450 61.685,50.166 62.400,49.965 62.400 C 49.490 62.400,49.480 87.079,49.955 87.372 C 50.150 87.493,50.435 88.263,50.589 89.083 C 50.900 90.738,52.665 94.000,53.251 94.000 C 53.457 94.000,53.740 94.300,53.881 94.667 C 54.218 95.546,56.461 97.573,57.113 97.588 C 57.394 97.595,57.725 97.861,57.847 98.179 C 57.970 98.498,59.044 98.976,60.235 99.243 C 61.426 99.509,62.400 99.879,62.400 100.064 C 62.400 100.249,124.320 100.400,200.000 100.400 C 275.680 100.400,337.600 100.249,337.600 100.064 C 337.600 99.879,338.574 99.509,339.765 99.243 C 340.956 98.976,342.030 98.498,342.153 98.179 C 342.275 97.861,342.606 97.595,342.887 97.588 C 343.461 97.575,346.000 95.384,346.000 94.902 C 346.000 94.732,346.360 94.368,346.800 94.093 C 347.240 93.818,347.600 93.398,347.600 93.160 C 347.600 92.921,347.945 92.287,348.367 91.751 C 348.789 91.215,349.254 90.062,349.402 89.188 C 349.550 88.315,349.834 87.600,350.035 87.600 C 350.247 87.600,350.400 82.324,350.400 75.000 C 350.400 67.919,350.244 62.400,350.045 62.400 C 349.849 62.400,349.563 61.730,349.410 60.912 C 348.620 56.703,343.290 51.366,339.100 50.589 C 338.275 50.436,337.600 50.151,337.600 49.955 C 337.600 49.749,279.979 49.600,200.000 49.600 C 120.021 49.600,62.400 49.749,62.400 49.955 M84.267 132.267 C 84.120 132.413,84.000 140.153,84.000 149.467 L 84.000 166.400 66.800 166.400 L 49.600 166.400 49.600 191.600 L 49.600 216.800 66.400 216.800 L 83.200 216.800 83.200 234.400 C 83.200 244.080,83.298 252.000,83.417 252.000 C 83.658 252.000,84.065 251.690,85.745 250.224 C 86.374 249.675,87.229 249.118,87.645 248.986 C 88.060 248.854,88.400 248.573,88.400 248.360 C 88.400 248.148,88.715 247.855,89.100 247.708 C 89.761 247.456,96.228 242.738,97.670 241.456 C 98.038 241.129,98.754 240.639,99.261 240.367 C 99.769 240.096,100.382 239.677,100.626 239.437 C 100.869 239.197,101.575 238.640,102.195 238.200 C 102.815 237.760,103.654 237.085,104.061 236.700 C 104.467 236.315,104.901 236.000,105.024 236.000 C 105.297 236.000,108.754 233.458,109.634 232.610 C 109.982 232.275,110.468 232.000,110.714 232.000 C 110.959 232.000,111.304 231.771,111.480 231.490 C 111.656 231.210,112.335 230.640,112.990 230.222 C 114.298 229.389,114.872 228.950,116.029 227.900 C 116.453 227.515,116.888 227.200,116.997 227.200 C 117.243 227.200,120.780 224.606,121.634 223.799 C 121.982 223.469,122.437 223.200,122.645 223.200 C 122.852 223.200,123.321 222.885,123.686 222.500 C 124.494 221.648,125.527 220.869,128.400 218.944 C 129.610 218.134,130.690 217.365,130.800 217.235 C 131.251 216.704,134.374 214.400,134.643 214.400 C 134.802 214.400,135.218 214.138,135.566 213.819 C 137.640 211.915,138.029 211.600,138.300 211.600 C 138.567 211.599,139.804 210.679,141.620 209.129 C 141.961 208.838,143.307 207.880,144.610 207.000 C 146.797 205.524,147.493 204.979,149.234 203.381 C 149.582 203.062,149.982 202.800,150.122 202.800 C 150.262 202.800,151.867 201.693,153.688 200.339 C 155.510 198.986,157.781 197.321,158.737 196.639 C 159.692 195.958,160.767 195.085,161.126 194.700 C 161.484 194.315,161.968 194.000,162.200 194.000 C 162.617 194.000,164.177 192.407,163.929 192.235 C 163.419 191.882,158.559 188.159,158.400 187.999 C 158.213 187.811,156.302 186.356,141.465 175.104 C 138.349 172.742,135.416 170.492,134.946 170.104 C 134.477 169.717,133.592 169.040,132.980 168.600 C 132.367 168.160,130.835 166.990,129.575 166.000 C 128.315 165.010,126.785 163.840,126.176 163.400 C 125.566 162.960,124.873 162.420,124.634 162.200 C 124.395 161.980,123.342 161.170,122.293 160.400 C 121.244 159.630,119.962 158.640,119.445 158.200 C 118.927 157.760,118.001 157.040,117.387 156.600 C 116.773 156.160,115.624 155.302,114.835 154.694 C 114.046 154.085,113.040 153.313,112.600 152.977 C 112.160 152.641,111.260 151.924,110.600 151.383 C 109.940 150.843,109.273 150.401,109.118 150.400 C 108.963 150.400,108.404 149.995,107.875 149.500 C 107.347 149.005,106.434 148.240,105.847 147.800 C 105.260 147.360,104.555 146.820,104.280 146.600 C 101.866 144.668,100.402 143.600,100.169 143.600 C 100.017 143.600,99.497 143.195,99.015 142.700 C 98.534 142.205,97.647 141.452,97.046 141.026 C 96.445 140.601,95.468 139.836,94.876 139.327 C 94.284 138.818,93.618 138.401,93.396 138.400 C 93.174 138.400,92.768 138.040,92.493 137.600 C 92.218 137.160,91.785 136.800,91.530 136.800 C 91.275 136.800,90.782 136.532,90.434 136.205 C 88.482 134.374,86.966 133.200,86.554 133.200 C 86.296 133.200,85.982 132.930,85.855 132.600 C 85.618 131.981,84.737 131.796,84.267 132.267 M211.700 166.680 C 211.205 166.777,210.800 167.001,210.800 167.178 C 210.800 167.355,210.250 167.610,209.577 167.745 C 208.447 167.971,204.000 171.074,204.000 171.636 C 204.000 171.772,203.545 172.404,202.989 173.042 C 201.338 174.932,201.283 175.027,200.764 176.850 C 200.489 177.812,200.115 178.771,199.933 178.980 C 199.475 179.503,199.507 203.895,199.965 204.178 C 200.166 204.303,200.450 205.112,200.596 205.976 C 200.742 206.841,201.208 207.948,201.631 208.436 C 202.054 208.923,202.400 209.459,202.400 209.625 C 202.400 210.187,206.590 214.207,207.800 214.805 C 208.460 215.132,209.090 215.505,209.200 215.635 C 210.118 216.717,214.803 216.800,275.000 216.800 C 335.197 216.800,339.882 216.717,340.800 215.635 C 340.910 215.505,341.540 215.131,342.200 214.803 C 343.480 214.167,347.600 210.251,347.600 209.670 C 347.600 209.479,347.946 208.923,348.369 208.436 C 348.792 207.948,349.258 206.841,349.404 205.976 C 349.550 205.112,349.834 204.303,350.035 204.178 C 350.499 203.892,350.522 179.496,350.059 178.980 C 349.871 178.771,349.488 177.745,349.207 176.700 C 348.926 175.655,348.584 174.795,348.448 174.789 C 348.312 174.783,347.756 174.060,347.214 173.181 C 346.048 171.291,342.214 168.166,340.564 167.762 C 339.924 167.605,339.272 167.280,339.115 167.038 C 338.836 166.610,213.860 166.258,211.700 166.680 M61.000 283.699 C 60.120 283.928,59.310 284.245,59.200 284.404 C 59.090 284.562,58.631 284.807,58.180 284.948 C 57.237 285.242,52.400 289.714,52.400 290.293 C 52.400 290.504,52.054 291.077,51.631 291.564 C 51.208 292.052,50.742 293.159,50.596 294.024 C 50.450 294.888,50.166 295.697,49.965 295.822 C 49.507 296.105,49.475 320.497,49.933 321.020 C 50.115 321.229,50.491 322.194,50.768 323.164 C 51.044 324.134,51.479 325.164,51.735 325.454 C 51.991 325.743,52.560 326.449,53.000 327.022 C 54.251 328.651,56.553 330.793,57.057 330.797 C 57.309 330.798,57.612 331.053,57.730 331.362 C 57.849 331.672,58.543 332.054,59.273 332.213 C 60.003 332.371,60.728 332.703,60.885 332.950 C 61.295 333.595,338.705 333.595,339.115 332.950 C 339.272 332.703,339.997 332.371,340.727 332.213 C 341.457 332.054,342.151 331.672,342.270 331.362 C 342.388 331.053,342.712 330.800,342.988 330.800 C 343.698 330.800,347.600 326.879,347.600 326.165 C 347.600 325.841,347.850 325.479,348.155 325.362 C 348.461 325.245,348.937 324.305,349.214 323.274 C 349.491 322.243,349.871 321.229,350.059 321.020 C 350.524 320.502,350.501 295.600,350.035 295.600 C 349.834 295.600,349.551 294.892,349.404 294.026 C 349.258 293.160,348.792 292.052,348.369 291.564 C 347.946 291.077,347.600 290.494,347.600 290.269 C 347.600 289.592,342.783 285.211,341.755 284.953 C 341.230 284.821,340.800 284.584,340.800 284.425 C 340.800 283.171,65.774 282.457,61.000 283.699 " stroke="none" fill="#ffffff" fill-rule="evenodd"></path><path id="path2" d="M62.400 49.955 C 62.400 50.151,61.725 50.436,60.900 50.589 C 58.827 50.973,56.699 52.264,54.481 54.481 C 52.887 56.076,52.400 56.658,52.400 56.970 C 52.400 57.137,52.055 57.713,51.633 58.249 C 51.211 58.785,50.746 59.938,50.598 60.812 C 50.450 61.685,50.166 62.400,49.965 62.400 C 49.490 62.400,49.480 87.079,49.955 87.372 C 50.150 87.493,50.435 88.263,50.589 89.083 C 50.900 90.738,52.665 94.000,53.251 94.000 C 53.457 94.000,53.740 94.300,53.881 94.667 C 54.218 95.546,56.461 97.573,57.113 97.588 C 57.394 97.595,57.725 97.861,57.847 98.179 C 57.970 98.498,59.044 98.976,60.235 99.243 C 61.426 99.509,62.400 99.879,62.400 100.064 C 62.400 100.249,124.320 100.400,200.000 100.400 C 275.680 100.400,337.600 100.249,337.600 100.064 C 337.600 99.879,338.574 99.509,339.765 99.243 C 340.956 98.976,342.030 98.498,342.153 98.179 C 342.275 97.861,342.606 97.595,342.887 97.588 C 343.461 97.575,346.000 95.384,346.000 94.902 C 346.000 94.732,346.360 94.368,346.800 94.093 C 347.240 93.818,347.600 93.398,347.600 93.160 C 347.600 92.921,347.945 92.287,348.367 91.751 C 348.789 91.215,349.254 90.062,349.402 89.188 C 349.550 88.315,349.834 87.600,350.035 87.600 C 350.247 87.600,350.400 82.324,350.400 75.000 C 350.400 67.919,350.244 62.400,350.045 62.400 C 349.849 62.400,349.563 61.730,349.410 60.912 C 348.620 56.703,343.290 51.366,339.100 50.589 C 338.275 50.436,337.600 50.151,337.600 49.955 C 337.600 49.749,279.979 49.600,200.000 49.600 C 120.021 49.600,62.400 49.749,62.400 49.955 M84.267 132.267 C 84.120 132.413,84.000 140.153,84.000 149.467 L 84.000 166.400 66.800 166.400 L 49.600 166.400 49.600 191.600 L 49.600 216.800 66.400 216.800 L 83.200 216.800 83.200 234.400 C 83.200 244.080,83.298 252.000,83.417 252.000 C 83.658 252.000,84.065 251.690,85.745 250.224 C 86.374 249.675,87.229 249.118,87.645 248.986 C 88.060 248.854,88.400 248.573,88.400 248.360 C 88.400 248.148,88.715 247.855,89.100 247.708 C 89.761 247.456,96.228 242.738,97.670 241.456 C 98.038 241.129,98.754 240.639,99.261 240.367 C 99.769 240.096,100.382 239.677,100.626 239.437 C 100.869 239.197,101.575 238.640,102.195 238.200 C 102.815 237.760,103.654 237.085,104.061 236.700 C 104.467 236.315,104.901 236.000,105.024 236.000 C 105.297 236.000,108.754 233.458,109.634 232.610 C 109.982 232.275,110.468 232.000,110.714 232.000 C 110.959 232.000,111.304 231.771,111.480 231.490 C 111.656 231.210,112.335 230.640,112.990 230.222 C 114.298 229.389,114.872 228.950,116.029 227.900 C 116.453 227.515,116.888 227.200,116.997 227.200 C 117.243 227.200,120.780 224.606,121.634 223.799 C 121.982 223.469,122.437 223.200,122.645 223.200 C 122.852 223.200,123.321 222.885,123.686 222.500 C 124.494 221.648,125.527 220.869,128.400 218.944 C 129.610 218.134,130.690 217.365,130.800 217.235 C 131.251 216.704,134.374 214.400,134.643 214.400 C 134.802 214.400,135.218 214.138,135.566 213.819 C 137.640 211.915,138.029 211.600,138.300 211.600 C 138.567 211.599,139.804 210.679,141.620 209.129 C 141.961 208.838,143.307 207.880,144.610 207.000 C 146.797 205.524,147.493 204.979,149.234 203.381 C 149.582 203.062,149.982 202.800,150.122 202.800 C 150.262 202.800,151.867 201.693,153.688 200.339 C 155.510 198.986,157.781 197.321,158.737 196.639 C 159.692 195.958,160.767 195.085,161.126 194.700 C 161.484 194.315,161.968 194.000,162.200 194.000 C 162.617 194.000,164.177 192.407,163.929 192.235 C 163.419 191.882,158.559 188.159,158.400 187.999 C 158.213 187.811,156.302 186.356,141.465 175.104 C 138.349 172.742,135.416 170.492,134.946 170.104 C 134.477 169.717,133.592 169.040,132.980 168.600 C 132.367 168.160,130.835 166.990,129.575 166.000 C 128.315 165.010,126.785 163.840,126.176 163.400 C 125.566 162.960,124.873 162.420,124.634 162.200 C 124.395 161.980,123.342 161.170,122.293 160.400 C 121.244 159.630,119.962 158.640,119.445 158.200 C 118.927 157.760,118.001 157.040,117.387 156.600 C 116.773 156.160,115.624 155.302,114.835 154.694 C 114.046 154.085,113.040 153.313,112.600 152.977 C 112.160 152.641,111.260 151.924,110.600 151.383 C 109.940 150.843,109.273 150.401,109.118 150.400 C 108.963 150.400,108.404 149.995,107.875 149.500 C 107.347 149.005,106.434 148.240,105.847 147.800 C 105.260 147.360,104.555 146.820,104.280 146.600 C 101.866 144.668,100.402 143.600,100.169 143.600 C 100.017 143.600,99.497 143.195,99.015 142.700 C 98.534 142.205,97.647 141.452,97.046 141.026 C 96.445 140.601,95.468 139.836,94.876 139.327 C 94.284 138.818,93.618 138.401,93.396 138.400 C 93.174 138.400,92.768 138.040,92.493 137.600 C 92.218 137.160,91.785 136.800,91.530 136.800 C 91.275 136.800,90.782 136.532,90.434 136.205 C 88.482 134.374,86.966 133.200,86.554 133.200 C 86.296 133.200,85.982 132.930,85.855 132.600 C 85.618 131.981,84.737 131.796,84.267 132.267 M211.700 166.680 C 211.205 166.777,210.800 167.001,210.800 167.178 C 210.800 167.355,210.250 167.610,209.577 167.745 C 208.447 167.971,204.000 171.074,204.000 171.636 C 204.000 171.772,203.545 172.404,202.989 173.042 C 201.338 174.932,201.283 175.027,200.764 176.850 C 200.489 177.812,200.115 178.771,199.933 178.980 C 199.475 179.503,199.507 203.895,199.965 204.178 C 200.166 204.303,200.450 205.112,200.596 205.976 C 200.742 206.841,201.208 207.948,201.631 208.436 C 202.054 208.923,202.400 209.459,202.400 209.625 C 202.400 210.187,206.590 214.207,207.800 214.805 C 208.460 215.132,209.090 215.505,209.200 215.635 C 210.118 216.717,214.803 216.800,275.000 216.800 C 335.197 216.800,339.882 216.717,340.800 215.635 C 340.910 215.505,341.540 215.131,342.200 214.803 C 343.480 214.167,347.600 210.251,347.600 209.670 C 347.600 209.479,347.946 208.923,348.369 208.436 C 348.792 207.948,349.258 206.841,349.404 205.976 C 349.550 205.112,349.834 204.303,350.035 204.178 C 350.499 203.892,350.522 179.496,350.059 178.980 C 349.871 178.771,349.488 177.745,349.207 176.700 C 348.926 175.655,348.584 174.795,348.448 174.789 C 348.312 174.783,347.756 174.060,347.214 173.181 C 346.048 171.291,342.214 168.166,340.564 167.762 C 339.924 167.605,339.272 167.280,339.115 167.038 C 338.836 166.610,213.860 166.258,211.700 166.680 M61.000 283.699 C 60.120 283.928,59.310 284.245,59.200 284.404 C 59.090 284.562,58.631 284.807,58.180 284.948 C 57.237 285.242,52.400 289.714,52.400 290.293 C 52.400 290.504,52.054 291.077,51.631 291.564 C 51.208 292.052,50.742 293.159,50.596 294.024 C 50.450 294.888,50.166 295.697,49.965 295.822 C 49.507 296.105,49.475 320.497,49.933 321.020 C 50.115 321.229,50.491 322.194,50.768 323.164 C 51.044 324.134,51.479 325.164,51.735 325.454 C 51.991 325.743,52.560 326.449,53.000 327.022 C 54.251 328.651,56.553 330.793,57.057 330.797 C 57.309 330.798,57.612 331.053,57.730 331.362 C 57.849 331.672,58.543 332.054,59.273 332.213 C 60.003 332.371,60.728 332.703,60.885 332.950 C 61.295 333.595,338.705 333.595,339.115 332.950 C 339.272 332.703,339.997 332.371,340.727 332.213 C 341.457 332.054,342.151 331.672,342.270 331.362 C 342.388 331.053,342.712 330.800,342.988 330.800 C 343.698 330.800,347.600 326.879,347.600 326.165 C 347.600 325.841,347.850 325.479,348.155 325.362 C 348.461 325.245,348.937 324.305,349.214 323.274 C 349.491 322.243,349.871 321.229,350.059 321.020 C 350.524 320.502,350.501 295.600,350.035 295.600 C 349.834 295.600,349.551 294.892,349.404 294.026 C 349.258 293.160,348.792 292.052,348.369 291.564 C 347.946 291.077,347.600 290.494,347.600 290.269 C 347.600 289.592,342.783 285.211,341.755 284.953 C 341.230 284.821,340.800 284.584,340.800 284.425 C 340.800 283.171,65.774 282.457,61.000 283.699 " stroke="none" fill="#ffffff" fill-rule="evenodd"></path><path id="path3" d="M62.400 49.955 C 62.400 50.151,61.725 50.436,60.900 50.589 C 58.827 50.973,56.699 52.264,54.481 54.481 C 52.887 56.076,52.400 56.658,52.400 56.970 C 52.400 57.137,52.055 57.713,51.633 58.249 C 51.211 58.785,50.746 59.938,50.598 60.812 C 50.450 61.685,50.166 62.400,49.965 62.400 C 49.490 62.400,49.480 87.079,49.955 87.372 C 50.150 87.493,50.435 88.263,50.589 89.083 C 50.900 90.738,52.665 94.000,53.251 94.000 C 53.457 94.000,53.740 94.300,53.881 94.667 C 54.218 95.546,56.461 97.573,57.113 97.588 C 57.394 97.595,57.725 97.861,57.847 98.179 C 57.970 98.498,59.044 98.976,60.235 99.243 C 61.426 99.509,62.400 99.879,62.400 100.064 C 62.400 100.249,124.320 100.400,200.000 100.400 C 275.680 100.400,337.600 100.249,337.600 100.064 C 337.600 99.879,338.574 99.509,339.765 99.243 C 340.956 98.976,342.030 98.498,342.153 98.179 C 342.275 97.861,342.606 97.595,342.887 97.588 C 343.461 97.575,346.000 95.384,346.000 94.902 C 346.000 94.732,346.360 94.368,346.800 94.093 C 347.240 93.818,347.600 93.398,347.600 93.160 C 347.600 92.921,347.945 92.287,348.367 91.751 C 348.789 91.215,349.254 90.062,349.402 89.188 C 349.550 88.315,349.834 87.600,350.035 87.600 C 350.247 87.600,350.400 82.324,350.400 75.000 C 350.400 67.919,350.244 62.400,350.045 62.400 C 349.849 62.400,349.563 61.730,349.410 60.912 C 348.620 56.703,343.290 51.366,339.100 50.589 C 338.275 50.436,337.600 50.151,337.600 49.955 C 337.600 49.749,279.979 49.600,200.000 49.600 C 120.021 49.600,62.400 49.749,62.400 49.955 M84.267 132.267 C 84.120 132.413,84.000 140.153,84.000 149.467 L 84.000 166.400 66.800 166.400 L 49.600 166.400 49.600 191.600 L 49.600 216.800 66.400 216.800 L 83.200 216.800 83.200 234.400 C 83.200 244.080,83.298 252.000,83.417 252.000 C 83.658 252.000,84.065 251.690,85.745 250.224 C 86.374 249.675,87.229 249.118,87.645 248.986 C 88.060 248.854,88.400 248.573,88.400 248.360 C 88.400 248.148,88.715 247.855,89.100 247.708 C 89.761 247.456,96.228 242.738,97.670 241.456 C 98.038 241.129,98.754 240.639,99.261 240.367 C 99.769 240.096,100.382 239.677,100.626 239.437 C 100.869 239.197,101.575 238.640,102.195 238.200 C 102.815 237.760,103.654 237.085,104.061 236.700 C 104.467 236.315,104.901 236.000,105.024 236.000 C 105.297 236.000,108.754 233.458,109.634 232.610 C 109.982 232.275,110.468 232.000,110.714 232.000 C 110.959 232.000,111.304 231.771,111.480 231.490 C 111.656 231.210,112.335 230.640,112.990 230.222 C 114.298 229.389,114.872 228.950,116.029 227.900 C 116.453 227.515,116.888 227.200,116.997 227.200 C 117.243 227.200,120.780 224.606,121.634 223.799 C 121.982 223.469,122.437 223.200,122.645 223.200 C 122.852 223.200,123.321 222.885,123.686 222.500 C 124.494 221.648,125.527 220.869,128.400 218.944 C 129.610 218.134,130.690 217.365,130.800 217.235 C 131.251 216.704,134.374 214.400,134.643 214.400 C 134.802 214.400,135.218 214.138,135.566 213.819 C 137.640 211.915,138.029 211.600,138.300 211.600 C 138.567 211.599,139.804 210.679,141.620 209.129 C 141.961 208.838,143.307 207.880,144.610 207.000 C 146.797 205.524,147.493 204.979,149.234 203.381 C 149.582 203.062,149.982 202.800,150.122 202.800 C 150.262 202.800,151.867 201.693,153.688 200.339 C 155.510 198.986,157.781 197.321,158.737 196.639 C 159.692 195.958,160.767 195.085,161.126 194.700 C 161.484 194.315,161.968 194.000,162.200 194.000 C 162.617 194.000,164.177 192.407,163.929 192.235 C 163.419 191.882,158.559 188.159,158.400 187.999 C 158.213 187.811,156.302 186.356,141.465 175.104 C 138.349 172.742,135.416 170.492,134.946 170.104 C 134.477 169.717,133.592 169.040,132.980 168.600 C 132.367 168.160,130.835 166.990,129.575 166.000 C 128.315 165.010,126.785 163.840,126.176 163.400 C 125.566 162.960,124.873 162.420,124.634 162.200 C 124.395 161.980,123.342 161.170,122.293 160.400 C 121.244 159.630,119.962 158.640,119.445 158.200 C 118.927 157.760,118.001 157.040,117.387 156.600 C 116.773 156.160,115.624 155.302,114.835 154.694 C 114.046 154.085,113.040 153.313,112.600 152.977 C 112.160 152.641,111.260 151.924,110.600 151.383 C 109.940 150.843,109.273 150.401,109.118 150.400 C 108.963 150.400,108.404 149.995,107.875 149.500 C 107.347 149.005,106.434 148.240,105.847 147.800 C 105.260 147.360,104.555 146.820,104.280 146.600 C 101.866 144.668,100.402 143.600,100.169 143.600 C 100.017 143.600,99.497 143.195,99.015 142.700 C 98.534 142.205,97.647 141.452,97.046 141.026 C 96.445 140.601,95.468 139.836,94.876 139.327 C 94.284 138.818,93.618 138.401,93.396 138.400 C 93.174 138.400,92.768 138.040,92.493 137.600 C 92.218 137.160,91.785 136.800,91.530 136.800 C 91.275 136.800,90.782 136.532,90.434 136.205 C 88.482 134.374,86.966 133.200,86.554 133.200 C 86.296 133.200,85.982 132.930,85.855 132.600 C 85.618 131.981,84.737 131.796,84.267 132.267 M211.700 166.680 C 211.205 166.777,210.800 167.001,210.800 167.178 C 210.800 167.355,210.250 167.610,209.577 167.745 C 208.447 167.971,204.000 171.074,204.000 171.636 C 204.000 171.772,203.545 172.404,202.989 173.042 C 201.338 174.932,201.283 175.027,200.764 176.850 C 200.489 177.812,200.115 178.771,199.933 178.980 C 199.475 179.503,199.507 203.895,199.965 204.178 C 200.166 204.303,200.450 205.112,200.596 205.976 C 200.742 206.841,201.208 207.948,201.631 208.436 C 202.054 208.923,202.400 209.459,202.400 209.625 C 202.400 210.187,206.590 214.207,207.800 214.805 C 208.460 215.132,209.090 215.505,209.200 215.635 C 210.118 216.717,214.803 216.800,275.000 216.800 C 335.197 216.800,339.882 216.717,340.800 215.635 C 340.910 215.505,341.540 215.131,342.200 214.803 C 343.480 214.167,347.600 210.251,347.600 209.670 C 347.600 209.479,347.946 208.923,348.369 208.436 C 348.792 207.948,349.258 206.841,349.404 205.976 C 349.550 205.112,349.834 204.303,350.035 204.178 C 350.499 203.892,350.522 179.496,350.059 178.980 C 349.871 178.771,349.488 177.745,349.207 176.700 C 348.926 175.655,348.584 174.795,348.448 174.789 C 348.312 174.783,347.756 174.060,347.214 173.181 C 346.048 171.291,342.214 168.166,340.564 167.762 C 339.924 167.605,339.272 167.280,339.115 167.038 C 338.836 166.610,213.860 166.258,211.700 166.680 M61.000 283.699 C 60.120 283.928,59.310 284.245,59.200 284.404 C 59.090 284.562,58.631 284.807,58.180 284.948 C 57.237 285.242,52.400 289.714,52.400 290.293 C 52.400 290.504,52.054 291.077,51.631 291.564 C 51.208 292.052,50.742 293.159,50.596 294.024 C 50.450 294.888,50.166 295.697,49.965 295.822 C 49.507 296.105,49.475 320.497,49.933 321.020 C 50.115 321.229,50.491 322.194,50.768 323.164 C 51.044 324.134,51.479 325.164,51.735 325.454 C 51.991 325.743,52.560 326.449,53.000 327.022 C 54.251 328.651,56.553 330.793,57.057 330.797 C 57.309 330.798,57.612 331.053,57.730 331.362 C 57.849 331.672,58.543 332.054,59.273 332.213 C 60.003 332.371,60.728 332.703,60.885 332.950 C 61.295 333.595,338.705 333.595,339.115 332.950 C 339.272 332.703,339.997 332.371,340.727 332.213 C 341.457 332.054,342.151 331.672,342.270 331.362 C 342.388 331.053,342.712 330.800,342.988 330.800 C 343.698 330.800,347.600 326.879,347.600 326.165 C 347.600 325.841,347.850 325.479,348.155 325.362 C 348.461 325.245,348.937 324.305,349.214 323.274 C 349.491 322.243,349.871 321.229,350.059 321.020 C 350.524 320.502,350.501 295.600,350.035 295.600 C 349.834 295.600,349.551 294.892,349.404 294.026 C 349.258 293.160,348.792 292.052,348.369 291.564 C 347.946 291.077,347.600 290.494,347.600 290.269 C 347.600 289.592,342.783 285.211,341.755 284.953 C 341.230 284.821,340.800 284.584,340.800 284.425 C 340.800 283.171,65.774 282.457,61.000 283.699 " stroke="none" fill="#ffffff" fill-rule="evenodd"></path><path id="path4" d="M62.400 49.955 C 62.400 50.151,61.725 50.436,60.900 50.589 C 58.827 50.973,56.699 52.264,54.481 54.481 C 52.887 56.076,52.400 56.658,52.400 56.970 C 52.400 57.137,52.055 57.713,51.633 58.249 C 51.211 58.785,50.746 59.938,50.598 60.812 C 50.450 61.685,50.166 62.400,49.965 62.400 C 49.490 62.400,49.480 87.079,49.955 87.372 C 50.150 87.493,50.435 88.263,50.589 89.083 C 50.900 90.738,52.665 94.000,53.251 94.000 C 53.457 94.000,53.740 94.300,53.881 94.667 C 54.218 95.546,56.461 97.573,57.113 97.588 C 57.394 97.595,57.725 97.861,57.847 98.179 C 57.970 98.498,59.044 98.976,60.235 99.243 C 61.426 99.509,62.400 99.879,62.400 100.064 C 62.400 100.249,124.320 100.400,200.000 100.400 C 275.680 100.400,337.600 100.249,337.600 100.064 C 337.600 99.879,338.574 99.509,339.765 99.243 C 340.956 98.976,342.030 98.498,342.153 98.179 C 342.275 97.861,342.606 97.595,342.887 97.588 C 343.461 97.575,346.000 95.384,346.000 94.902 C 346.000 94.732,346.360 94.368,346.800 94.093 C 347.240 93.818,347.600 93.398,347.600 93.160 C 347.600 92.921,347.945 92.287,348.367 91.751 C 348.789 91.215,349.254 90.062,349.402 89.188 C 349.550 88.315,349.834 87.600,350.035 87.600 C 350.247 87.600,350.400 82.324,350.400 75.000 C 350.400 67.919,350.244 62.400,350.045 62.400 C 349.849 62.400,349.563 61.730,349.410 60.912 C 348.620 56.703,343.290 51.366,339.100 50.589 C 338.275 50.436,337.600 50.151,337.600 49.955 C 337.600 49.749,279.979 49.600,200.000 49.600 C 120.021 49.600,62.400 49.749,62.400 49.955 M84.267 132.267 C 84.120 132.413,84.000 140.153,84.000 149.467 L 84.000 166.400 66.800 166.400 L 49.600 166.400 49.600 191.600 L 49.600 216.800 66.400 216.800 L 83.200 216.800 83.200 234.400 C 83.200 244.080,83.298 252.000,83.417 252.000 C 83.658 252.000,84.065 251.690,85.745 250.224 C 86.374 249.675,87.229 249.118,87.645 248.986 C 88.060 248.854,88.400 248.573,88.400 248.360 C 88.400 248.148,88.715 247.855,89.100 247.708 C 89.761 247.456,96.228 242.738,97.670 241.456 C 98.038 241.129,98.754 240.639,99.261 240.367 C 99.769 240.096,100.382 239.677,100.626 239.437 C 100.869 239.197,101.575 238.640,102.195 238.200 C 102.815 237.760,103.654 237.085,104.061 236.700 C 104.467 236.315,104.901 236.000,105.024 236.000 C 105.297 236.000,108.754 233.458,109.634 232.610 C 109.982 232.275,110.468 232.000,110.714 232.000 C 110.959 232.000,111.304 231.771,111.480 231.490 C 111.656 231.210,112.335 230.640,112.990 230.222 C 114.298 229.389,114.872 228.950,116.029 227.900 C 116.453 227.515,116.888 227.200,116.997 227.200 C 117.243 227.200,120.780 224.606,121.634 223.799 C 121.982 223.469,122.437 223.200,122.645 223.200 C 122.852 223.200,123.321 222.885,123.686 222.500 C 124.494 221.648,125.527 220.869,128.400 218.944 C 129.610 218.134,130.690 217.365,130.800 217.235 C 131.251 216.704,134.374 214.400,134.643 214.400 C 134.802 214.400,135.218 214.138,135.566 213.819 C 137.640 211.915,138.029 211.600,138.300 211.600 C 138.567 211.599,139.804 210.679,141.620 209.129 C 141.961 208.838,143.307 207.880,144.610 207.000 C 146.797 205.524,147.493 204.979,149.234 203.381 C 149.582 203.062,149.982 202.800,150.122 202.800 C 150.262 202.800,151.867 201.693,153.688 200.339 C 155.510 198.986,157.781 197.321,158.737 196.639 C 159.692 195.958,160.767 195.085,161.126 194.700 C 161.484 194.315,161.968 194.000,162.200 194.000 C 162.617 194.000,164.177 192.407,163.929 192.235 C 163.419 191.882,158.559 188.159,158.400 187.999 C 158.213 187.811,156.302 186.356,141.465 175.104 C 138.349 172.742,135.416 170.492,134.946 170.104 C 134.477 169.717,133.592 169.040,132.980 168.600 C 132.367 168.160,130.835 166.990,129.575 166.000 C 128.315 165.010,126.785 163.840,126.176 163.400 C 125.566 162.960,124.873 162.420,124.634 162.200 C 124.395 161.980,123.342 161.170,122.293 160.400 C 121.244 159.630,119.962 158.640,119.445 158.200 C 118.927 157.760,118.001 157.040,117.387 156.600 C 116.773 156.160,115.624 155.302,114.835 154.694 C 114.046 154.085,113.040 153.313,112.600 152.977 C 112.160 152.641,111.260 151.924,110.600 151.383 C 109.940 150.843,109.273 150.401,109.118 150.400 C 108.963 150.400,108.404 149.995,107.875 149.500 C 107.347 149.005,106.434 148.240,105.847 147.800 C 105.260 147.360,104.555 146.820,104.280 146.600 C 101.866 144.668,100.402 143.600,100.169 143.600 C 100.017 143.600,99.497 143.195,99.015 142.700 C 98.534 142.205,97.647 141.452,97.046 141.026 C 96.445 140.601,95.468 139.836,94.876 139.327 C 94.284 138.818,93.618 138.401,93.396 138.400 C 93.174 138.400,92.768 138.040,92.493 137.600 C 92.218 137.160,91.785 136.800,91.530 136.800 C 91.275 136.800,90.782 136.532,90.434 136.205 C 88.482 134.374,86.966 133.200,86.554 133.200 C 86.296 133.200,85.982 132.930,85.855 132.600 C 85.618 131.981,84.737 131.796,84.267 132.267 M211.700 166.680 C 211.205 166.777,210.800 167.001,210.800 167.178 C 210.800 167.355,210.250 167.610,209.577 167.745 C 208.447 167.971,204.000 171.074,204.000 171.636 C 204.000 171.772,203.545 172.404,202.989 173.042 C 201.338 174.932,201.283 175.027,200.764 176.850 C 200.489 177.812,200.115 178.771,199.933 178.980 C 199.475 179.503,199.507 203.895,199.965 204.178 C 200.166 204.303,200.450 205.112,200.596 205.976 C 200.742 206.841,201.208 207.948,201.631 208.436 C 202.054 208.923,202.400 209.459,202.400 209.625 C 202.400 210.187,206.590 214.207,207.800 214.805 C 208.460 215.132,209.090 215.505,209.200 215.635 C 210.118 216.717,214.803 216.800,275.000 216.800 C 335.197 216.800,339.882 216.717,340.800 215.635 C 340.910 215.505,341.540 215.131,342.200 214.803 C 343.480 214.167,347.600 210.251,347.600 209.670 C 347.600 209.479,347.946 208.923,348.369 208.436 C 348.792 207.948,349.258 206.841,349.404 205.976 C 349.550 205.112,349.834 204.303,350.035 204.178 C 350.499 203.892,350.522 179.496,350.059 178.980 C 349.871 178.771,349.488 177.745,349.207 176.700 C 348.926 175.655,348.584 174.795,348.448 174.789 C 348.312 174.783,347.756 174.060,347.214 173.181 C 346.048 171.291,342.214 168.166,340.564 167.762 C 339.924 167.605,339.272 167.280,339.115 167.038 C 338.836 166.610,213.860 166.258,211.700 166.680 M61.000 283.699 C 60.120 283.928,59.310 284.245,59.200 284.404 C 59.090 284.562,58.631 284.807,58.180 284.948 C 57.237 285.242,52.400 289.714,52.400 290.293 C 52.400 290.504,52.054 291.077,51.631 291.564 C 51.208 292.052,50.742 293.159,50.596 294.024 C 50.450 294.888,50.166 295.697,49.965 295.822 C 49.507 296.105,49.475 320.497,49.933 321.020 C 50.115 321.229,50.491 322.194,50.768 323.164 C 51.044 324.134,51.479 325.164,51.735 325.454 C 51.991 325.743,52.560 326.449,53.000 327.022 C 54.251 328.651,56.553 330.793,57.057 330.797 C 57.309 330.798,57.612 331.053,57.730 331.362 C 57.849 331.672,58.543 332.054,59.273 332.213 C 60.003 332.371,60.728 332.703,60.885 332.950 C 61.295 333.595,338.705 333.595,339.115 332.950 C 339.272 332.703,339.997 332.371,340.727 332.213 C 341.457 332.054,342.151 331.672,342.270 331.362 C 342.388 331.053,342.712 330.800,342.988 330.800 C 343.698 330.800,347.600 326.879,347.600 326.165 C 347.600 325.841,347.850 325.479,348.155 325.362 C 348.461 325.245,348.937 324.305,349.214 323.274 C 349.491 322.243,349.871 321.229,350.059 321.020 C 350.524 320.502,350.501 295.600,350.035 295.600 C 349.834 295.600,349.551 294.892,349.404 294.026 C 349.258 293.160,348.792 292.052,348.369 291.564 C 347.946 291.077,347.600 290.494,347.600 290.269 C 347.600 289.592,342.783 285.211,341.755 284.953 C 341.230 284.821,340.800 284.584,340.800 284.425 C 340.800 283.171,65.774 282.457,61.000 283.699 " stroke="none" fill="#ffffff" fill-rule="evenodd"></path></g></svg>